<svg width="136" height="80" viewBox="0 0 136 80" fill="none" xmlns="http://www.w3.org/2000/svg">
<path d="M90.334 34.6671C89.4198 35.2765 88.0484 35.7337 86.3723 35.7337C83.7819 35.7337 81.344 35.4289 78.9063 34.6671C78.2969 34.5147 77.8397 34.3623 77.5349 34.3623C77.0777 34.3623 76.9255 34.6671 76.9255 35.2765V36.8002C76.9255 37.2574 77.0779 37.562 77.2303 37.8668C77.3827 38.0192 77.6875 38.324 78.1445 38.4762C80.5824 39.5428 83.325 40 86.3725 40C89.5722 40 92.0101 39.2382 93.9909 37.7144C95.9716 36.1907 96.8858 34.2099 96.8858 31.6196C96.8858 29.7912 96.4286 28.4199 95.5144 27.2009C94.6002 26.1343 93.0765 25.0678 90.9433 24.306L86.6771 22.6298C85.0009 22.0205 83.7821 21.4109 83.325 20.8015C82.7156 20.1921 82.4108 19.5825 82.4108 18.516C82.4108 16.2304 84.0869 15.0115 87.5912 15.0115C89.572 15.0115 91.5529 15.3163 93.3813 15.9256C93.9906 16.078 94.4478 16.2304 94.6002 16.2304C95.0574 16.2304 95.362 15.9256 95.362 15.3163V13.7925C95.362 13.3353 95.2096 13.0307 95.0572 12.7259C94.9048 12.4211 94.6 12.2687 94.143 12.1165C91.8575 11.3548 89.572 10.8976 87.2864 10.8976C84.3915 10.8976 81.9536 11.6594 80.125 13.0307C78.2967 14.4021 77.3823 16.3828 77.3823 18.6684C77.3823 22.1729 79.363 24.7632 83.3247 26.2867L87.8958 27.9629C89.4196 28.5723 90.3337 29.0295 90.9431 29.6391C91.5525 30.2484 91.7049 30.858 91.7049 31.7722C91.7053 32.9909 91.2481 34.0575 90.334 34.6671Z" fill="url(#paint0_linear_111_3)"/>
<path d="M66.4121 12.7259V32.991C63.8217 34.6671 61.2316 35.5813 58.6413 35.5813C56.9651 35.5813 55.7464 35.1241 54.9844 34.2099C54.2224 33.2958 53.9178 31.9244 53.9178 29.9436V12.7259C53.9178 11.9642 53.613 11.6594 52.8512 11.6594H49.6515C48.8898 11.6594 48.585 11.9642 48.585 12.7259V31.6196C48.585 34.2099 49.1943 36.3431 50.5657 37.7144C51.9371 39.0858 53.9178 39.8476 56.5081 39.8476C60.0126 39.8476 63.5171 38.6286 66.8692 36.1907L67.174 38.019C67.174 38.4762 67.3264 38.6284 67.6312 38.7808C67.7836 38.9332 68.0884 38.9332 68.5454 38.9332H70.8309C71.5927 38.9332 71.8975 38.6284 71.8975 37.8666V12.7259C71.8975 11.9642 71.5927 11.6594 70.8309 11.6594H67.6312C66.7169 11.6594 66.4121 12.1163 66.4121 12.7259Z" fill="url(#paint1_linear_111_3)"/>
<path d="M37.4618 39.0858H40.6615C41.4233 39.0858 41.7281 38.781 41.7281 38.0192V18.9732C41.7281 16.3828 41.1187 14.4021 39.7473 13.0307C38.376 11.6594 36.5476 10.8976 33.9573 10.8976C30.4528 10.8976 26.7959 12.1165 23.2914 14.7069C22.0724 12.1165 19.7869 10.8976 16.4348 10.8976C13.0827 10.8976 9.73059 12.1165 6.37848 14.4021L6.07369 12.7259C6.07369 12.2687 5.92129 12.1165 5.6165 11.9642C5.4641 11.8118 5.1593 11.8118 4.85472 11.8118H2.41679C1.65501 11.8118 1.35022 12.1165 1.35022 12.8783V38.1716C1.35022 38.9334 1.65501 39.2382 2.41679 39.2382H5.6165C6.37827 39.2382 6.68307 38.9334 6.68307 38.1716V17.6018C9.2734 16.078 11.8635 15.1639 14.6062 15.1639C16.13 15.1639 17.1966 15.621 17.8059 16.5352C18.4153 17.4494 18.8725 18.6684 18.8725 20.4969V38.0194C18.8725 38.7812 19.1773 39.086 19.9391 39.086H23.1388C23.9006 39.086 24.2054 38.7812 24.2054 38.0194V19.2779V18.3638C24.2054 18.059 24.2054 17.7544 24.2054 17.602C26.9481 15.9258 29.5382 15.1641 32.1285 15.1641C33.6523 15.1641 34.7189 15.6213 35.3282 16.5354C35.9376 17.4496 36.3948 18.6686 36.3948 20.4971V38.0196C36.3952 38.781 36.7 39.0858 37.4618 39.0858Z" fill="url(#paint2_linear_111_3)"/>
<path d="M120.503 59.3508C103.895 66.3598 85.7629 69.8643 69.3071 69.8643C44.928 69.8643 21.3109 63.1601 2.26482 52.0372C1.96003 51.8848 1.65545 51.7324 1.35065 51.7324C0.284082 51.7324 -0.325509 52.9514 0.741276 54.018C18.4162 70.0167 41.8809 79.616 67.7836 79.616C86.3727 79.616 107.857 73.826 122.636 62.8555C125.227 61.027 123.093 58.2842 120.503 59.3508Z" fill="url(#paint3_linear_111_3)"/>
<path d="M120.046 17.754C121.417 16.2302 123.55 15.4685 126.598 15.4685C128.121 15.4685 129.645 15.6209 131.016 16.0779C131.474 16.2302 131.626 16.2302 131.93 16.2302C132.388 16.2302 132.692 15.9255 132.692 15.1637V13.6399C132.692 13.1827 132.54 12.7257 132.387 12.5733C132.235 12.421 131.93 12.1162 131.626 11.964C129.645 11.5068 127.664 11.0498 125.836 11.0498C121.569 11.0498 118.37 12.2688 115.932 14.8591C113.646 17.297 112.427 20.9539 112.427 25.525C112.427 30.0961 113.494 33.6006 115.779 36.0385C118.065 38.4764 121.265 39.6954 125.531 39.6954C127.816 39.6954 129.95 39.3906 131.626 38.6288C132.083 38.4764 132.387 38.3241 132.54 38.0195C132.692 37.8671 132.692 37.4101 132.692 36.9529V35.4291C132.692 34.6674 132.387 34.3626 131.93 34.3626C131.778 34.3626 131.473 34.3626 131.169 34.515C129.493 34.9722 127.817 35.2767 126.293 35.2767C123.398 35.2767 121.265 34.515 119.893 32.9912C118.522 31.4674 117.913 29.0295 117.913 25.8298V25.068C118.065 21.7157 118.674 19.2778 120.046 17.754Z" fill="url(#paint4_linear_111_3)"/>
<path d="M126.903 73.6734C134.826 66.9692 136.959 53.1036 135.283 50.9704C134.521 50.0563 130.864 49.1421 126.293 49.1421C121.417 49.1421 115.627 50.2087 111.209 53.256C109.837 54.1701 110.142 55.3891 111.513 55.2367C116.237 54.6273 126.902 53.4084 128.883 55.8461C130.712 58.284 126.75 68.3403 124.922 72.759C124.465 74.1306 125.531 74.5878 126.903 73.6734Z" fill="url(#paint5_linear_111_3)"/>
<path d="M105.723 11.6594H102.524C101.762 11.6594 101.457 11.9642 101.457 12.7259V38.0192C101.457 38.781 101.762 39.0858 102.524 39.0858H105.723C106.485 39.0858 106.79 38.781 106.79 38.0192V12.7259C106.79 12.1163 106.485 11.6594 105.723 11.6594Z" fill="url(#paint6_linear_111_3)"/>
<path d="M106.638 1.29826C106.028 0.688889 105.114 0.384094 104.047 0.384094C102.981 0.384094 102.219 0.688889 101.609 1.29826C101 1.90764 100.695 2.66963 100.695 3.5838C100.695 4.49797 101 5.41214 101.609 5.86933C102.219 6.47871 102.981 6.78351 104.047 6.78351C105.114 6.78351 105.876 6.47871 106.485 5.86933C107.094 5.25996 107.399 4.49797 107.399 3.5838C107.399 2.66963 107.247 1.75546 106.638 1.29826Z" fill="url(#paint7_linear_111_3)"/>
<defs>
<linearGradient id="paint0_linear_111_3" x1="29.5344" y1="82.8959" x2="116.063" y2="-3.63283" gradientUnits="userSpaceOnUse">
<stop stop-color="#0C6CB3"/>
<stop offset="0.2911" stop-color="#1E84C4"/>
<stop offset="0.8873" stop-color="#4CC0EF"/>
<stop offset="1" stop-color="#4CC0EF"/>
</linearGradient>
<linearGradient id="paint1_linear_111_3" x1="16.0868" y1="69.4483" x2="102.616" y2="-17.0805" gradientUnits="userSpaceOnUse">
<stop stop-color="#0C6CB3"/>
<stop offset="0.2911" stop-color="#1E84C4"/>
<stop offset="0.8873" stop-color="#4CC0EF"/>
<stop offset="1" stop-color="#4CC0EF"/>
</linearGradient>
<linearGradient id="paint2_linear_111_3" x1="-3.18633" y1="50.1752" x2="83.3425" y2="-36.3535" gradientUnits="userSpaceOnUse">
<stop stop-color="#0C6CB3"/>
<stop offset="0.2911" stop-color="#1E84C4"/>
<stop offset="0.8873" stop-color="#4CC0EF"/>
<stop offset="1" stop-color="#4CC0EF"/>
</linearGradient>
<linearGradient id="paint3_linear_111_3" x1="32.8982" y1="86.1735" x2="119.425" y2="-0.353343" gradientUnits="userSpaceOnUse">
<stop stop-color="#0C6CB3"/>
<stop offset="0.2911" stop-color="#1E84C4"/>
<stop offset="0.8873" stop-color="#4CC0EF"/>
<stop offset="1" stop-color="#4CC0EF"/>
</linearGradient>
<linearGradient id="paint4_linear_111_3" x1="48.6701" y1="102.032" x2="135.199" y2="15.503" gradientUnits="userSpaceOnUse">
<stop stop-color="#0C6CB3"/>
<stop offset="0.2911" stop-color="#1E84C4"/>
<stop offset="0.8873" stop-color="#4CC0EF"/>
<stop offset="1" stop-color="#4CC0EF"/>
</linearGradient>
<linearGradient id="paint5_linear_111_3" x1="64.5813" y1="117.943" x2="151.11" y2="31.4141" gradientUnits="userSpaceOnUse">
<stop stop-color="#0C6CB3"/>
<stop offset="0.2911" stop-color="#1E84C4"/>
<stop offset="0.8873" stop-color="#4CC0EF"/>
<stop offset="1" stop-color="#4CC0EF"/>
</linearGradient>
<linearGradient id="paint6_linear_111_3" x1="38.0666" y1="91.4282" x2="124.595" y2="4.89942" gradientUnits="userSpaceOnUse">
<stop stop-color="#0C6CB3"/>
<stop offset="0.2911" stop-color="#1E84C4"/>
<stop offset="0.8873" stop-color="#4CC0EF"/>
<stop offset="1" stop-color="#4CC0EF"/>
</linearGradient>
<linearGradient id="paint7_linear_111_3" x1="27.1354" y1="80.4972" x2="113.664" y2="-6.03176" gradientUnits="userSpaceOnUse">
<stop stop-color="#0C6CB3"/>
<stop offset="0.2911" stop-color="#1E84C4"/>
<stop offset="0.8873" stop-color="#4CC0EF"/>
<stop offset="1" stop-color="#4CC0EF"/>
</linearGradient>
</defs>
</svg>
