<svg width="29" height="15" viewBox="0 0 29 15" fill="none" xmlns="http://www.w3.org/2000/svg">
<path d="M23.3329 8.51021V7.89796H28.5721V9.12245H23.3329V8.51021ZM23.3329 6.55102V5.93878H28.5721V7.16327H23.3329V6.55102ZM23.3329 4.59184V3.97959H28.5721V5.20408H23.3329V4.59184ZM23.3329 2.57143V1.95918H28.5721V3.2449H23.3329V2.57143ZM23.3329 0.67347V0H28.5721V1.34694H23.3329V0.67347Z" fill="#B1E3FA"/>
<path d="M11.636 8.51022V7.89797H16.8752V9.12246H11.636V8.51022ZM11.636 6.55104V5.93879H16.8752V7.16328H11.636V6.55104ZM11.636 4.59185V3.97961H16.8752V5.2041H11.636V4.59185ZM11.636 2.57144V1.9592H16.8752V3.24491H11.636V2.57144Z" fill="#F7BACF"/>
<path d="M17.4844 8.51021V7.89797H22.7236V9.12246H17.4844V8.51021ZM17.4844 6.55103V5.93878H22.7236V7.16327H17.4844V6.55103Z" fill="#E7EE9F"/>
<path d="M5.84851 14.3878V13.7755H10.9659V15H5.84851V14.3878ZM5.84851 12.3674V11.7551H10.9659V12.9796H5.84851V12.3674ZM5.84851 10.4082V9.79593H10.9659V11.0204H5.84851V10.4082Z" fill="#FEEA3A"/>
<path d="M0 8.51021V7.89797H5.11739V9.12246H0V8.51021ZM0 6.55103V5.93878H5.11739V7.16327H0V6.55103Z" fill="#FE9D7F"/>
<path d="M23.3938 14.3878V13.7755H28.5112V15H23.3938V14.3878ZM23.3938 12.3674V11.7551H28.5112V12.9796H23.3938V12.3674ZM23.3938 10.4082V9.79593H28.5112V11.0204H23.3938V10.4082Z" fill="#4EC2F6"/>
<path d="M17.5454 14.3878V13.7755H22.6628V15H17.5454V14.3878ZM17.5454 12.3674V11.7551H22.6628V12.9796H17.5454V12.3674ZM17.5454 10.4082V9.79593H22.6628V11.0204H17.5454V10.4082Z" fill="#CCDB38"/>
<path d="M11.6969 14.3878V13.7755H16.8143V15H11.6969V14.3878ZM11.6969 12.3674V11.7551H16.8143V12.9796H11.6969V12.3674ZM11.6969 10.4082V9.79593H16.8143V11.0204H11.6969V10.4082Z" fill="#FE3F80"/>
<path d="M0 14.3878V13.7755H5.11739V15H0V14.3878ZM0 12.3674V11.7551H5.11739V12.9796H0V12.3674ZM0 10.4082V9.79593H5.11739V11.0204H0V10.4082Z" fill="#FE3D02"/>
</svg>
