<svg width="27" height="24" viewBox="0 0 27 24" fill="none" xmlns="http://www.w3.org/2000/svg">
<path d="M8.83888 13.2081H8.01338C6.18953 13.2081 4.71136 14.6888 4.71136 16.5163V19.8059C4.71136 21.6329 6.18953 23.1141 8.01338 23.1141H8.83888C9.75055 23.1141 10.4899 22.3732 10.4899 21.46V14.8622C10.4899 13.9485 9.75055 13.2081 8.83888 13.2081ZM19.5704 13.2081H18.7449C17.8333 13.2081 17.0939 13.9485 17.0939 14.8622V21.46C17.0939 22.3732 17.8333 23.1141 18.7449 23.1141H19.5704C21.3943 23.1141 22.8725 21.6329 22.8725 19.8059V16.5163C22.8725 14.6893 21.3943 13.2081 19.5704 13.2081ZM13.7919 0C6.40932 0 0.819617 6.1464 0.583832 13.2081V18.9866C0.583832 19.4427 0.953245 19.8121 1.40934 19.8121H2.23484C2.69093 19.8121 3.06035 19.4427 3.06035 18.9866V13.2081C3.06035 7.29179 7.87562 2.48683 13.7919 2.4858C19.7082 2.48683 24.5235 7.29179 24.5235 13.2081V18.9866C24.5235 19.4427 24.8929 19.8121 25.349 19.8121H26.1745C26.6306 19.8121 27 19.4427 27 18.9866V13.2081C26.7642 6.1464 21.1745 0 13.7919 0Z" fill="#FDFDFD"/>
</svg>
