<svg width="30" height="30" viewBox="0 0 30 30" fill="none" xmlns="http://www.w3.org/2000/svg">
<g clip-path="url(#clip0_1_203)">
<path d="M7.60722 29.3403C5.82311 29.2607 4.85393 28.9693 4.20929 28.7225C3.35513 28.3961 2.74616 28.0075 2.10509 27.3792C1.46403 26.7509 1.06726 26.1532 0.736472 25.3149C0.485038 24.6822 0.188132 23.7309 0.106995 21.9799C0.017834 20.087 1.70641e-06 19.5191 1.28717e-06 14.7235C8.67933e-07 9.92799 0.0196162 9.36093 0.106102 7.46634C0.187239 5.71527 0.485928 4.76579 0.735578 4.13134C1.06815 3.293 1.46492 2.6953 2.1042 2.06523C2.74438 1.43691 3.35334 1.04662 4.2084 0.721956C4.85303 0.475178 5.82221 0.18377 7.60632 0.104136C9.53577 0.0175011 10.1153 -8.84309e-07 14.9996 -1.3113e-06C19.8856 -1.73845e-06 20.4633 0.0192504 22.3937 0.104135C24.1778 0.183769 25.1452 0.476927 25.7916 0.721954C26.6458 1.04662 27.2547 1.43691 27.8958 2.06523C28.5369 2.69355 28.9318 3.29212 29.2644 4.13046C29.5159 4.76316 29.8128 5.71439 29.8939 7.46546C29.9822 9.36005 30 9.92712 30 14.7227C30 19.5164 29.9822 20.0853 29.8939 21.9799C29.8128 23.7309 29.5141 24.6822 29.2644 25.3149C28.9319 26.1532 28.536 26.7509 27.8958 27.3792C27.2556 28.0075 26.6458 28.3961 25.7916 28.7225C25.147 28.9693 24.1778 29.2607 22.3937 29.3403C20.4651 29.4269 19.8856 29.4444 14.9996 29.4444C10.1153 29.4444 9.53577 29.4278 7.60722 29.3403Z" fill="url(#paint0_radial_1_203)"/>
<path d="M7.60722 29.3403C5.82311 29.2607 4.85393 28.9693 4.20929 28.7225C3.35513 28.3961 2.74616 28.0075 2.10509 27.3792C1.46403 26.7509 1.06726 26.1532 0.736472 25.3149C0.485038 24.6822 0.188132 23.7309 0.106995 21.9799C0.017834 20.087 1.70641e-06 19.5191 1.28717e-06 14.7235C8.67933e-07 9.92799 0.0196162 9.36093 0.106102 7.46634C0.187239 5.71527 0.485928 4.76579 0.735578 4.13134C1.06815 3.293 1.46492 2.6953 2.1042 2.06523C2.74438 1.43691 3.35334 1.04662 4.2084 0.721956C4.85303 0.475178 5.82221 0.18377 7.60632 0.104136C9.53577 0.0175011 10.1153 -8.84309e-07 14.9996 -1.3113e-06C19.8856 -1.73845e-06 20.4633 0.0192504 22.3937 0.104135C24.1778 0.183769 25.1452 0.476927 25.7916 0.721954C26.6458 1.04662 27.2547 1.43691 27.8958 2.06523C28.5369 2.69355 28.9318 3.29212 29.2644 4.13046C29.5159 4.76316 29.8128 5.71439 29.8939 7.46546C29.9822 9.36005 30 9.92712 30 14.7227C30 19.5164 29.9822 20.0853 29.8939 21.9799C29.8128 23.7309 29.5141 24.6822 29.2644 25.3149C28.9319 26.1532 28.536 26.7509 27.8958 27.3792C27.2556 28.0075 26.6458 28.3961 25.7916 28.7225C25.147 28.9693 24.1778 29.2607 22.3937 29.3403C20.4651 29.4269 19.8856 29.4444 14.9996 29.4444C10.1153 29.4444 9.53577 29.4278 7.60722 29.3403Z" fill="url(#paint1_radial_1_203)"/>
<path d="M11.3168 14.785C11.3168 12.7713 12.9795 11.1384 15.0312 11.1384C17.0829 11.1384 18.7466 12.7713 18.7466 14.785C18.7466 16.7986 17.0829 18.4315 15.0312 18.4315C12.9795 18.4315 11.3168 16.7986 11.3168 14.785ZM9.30835 14.785C9.30835 17.8872 11.8705 20.4019 15.0312 20.4019C18.192 20.4019 20.7541 17.8872 20.7541 14.785C20.7541 11.6827 18.192 9.16805 15.0312 9.16805C11.8705 9.16805 9.30843 11.6826 9.30843 14.785M19.6434 8.94533C19.6432 9.20495 19.7216 9.45877 19.8684 9.67469C20.0153 9.89061 20.2241 10.0589 20.4685 10.1584C20.7128 10.2578 20.9817 10.2839 21.2412 10.2334C21.5006 10.1828 21.739 10.0579 21.9261 9.87441C22.1132 9.69091 22.2407 9.45707 22.2924 9.20246C22.3441 8.94785 22.3177 8.68391 22.2166 8.44401C22.1155 8.20412 21.9441 7.99904 21.7242 7.85472C21.5044 7.7104 21.2458 7.63331 20.9813 7.63321L20.9808 7.63321C20.6262 7.63337 20.2862 7.77165 20.0354 8.01767C19.7847 8.26369 19.6437 8.59734 19.6434 8.94533ZM10.5286 23.6889C9.442 23.6403 8.8514 23.4627 8.45891 23.3126C7.93857 23.1138 7.5673 22.877 7.17695 22.4944C6.78661 22.1118 6.54498 21.7478 6.3433 21.2371C6.1903 20.852 6.0093 20.2722 5.95991 19.2057C5.90587 18.0527 5.89508 17.7063 5.89508 14.7851C5.89508 11.864 5.90676 11.5186 5.9599 10.3646C6.00939 9.29809 6.19172 8.71938 6.3433 8.3332C6.54587 7.82249 6.78714 7.4581 7.17695 7.07499C7.56676 6.69187 7.93767 6.45472 8.45891 6.25677C8.85122 6.1066 9.442 5.92896 10.5286 5.88048C11.7034 5.82744 12.0563 5.81686 15.0312 5.81686C18.0062 5.81686 18.3594 5.82814 19.5352 5.88065C20.6218 5.92922 21.2114 6.10818 21.6049 6.25694C22.1252 6.45489 22.4965 6.69257 22.8868 7.07516C23.2772 7.45775 23.5179 7.82267 23.7205 8.33338C23.8735 8.71842 24.0545 9.29826 24.1039 10.3647C24.1579 11.5187 24.1687 11.8641 24.1687 14.7853C24.1687 17.7065 24.1579 18.0519 24.1039 19.2059C24.0544 20.2723 23.8725 20.852 23.7205 21.2372C23.5179 21.7479 23.2767 22.1123 22.8869 22.4946C22.497 22.8768 22.1252 23.114 21.6049 23.3128C21.2126 23.463 20.6218 23.6406 19.5352 23.6891C18.3604 23.7421 18.0075 23.7527 15.0312 23.7527C12.055 23.7527 11.703 23.7421 10.5286 23.6891M10.4363 3.91247C9.24986 3.9655 8.43911 4.15014 7.73109 4.42055C6.99827 4.69979 6.37709 5.07442 5.75679 5.68227C5.1365 6.29011 4.75578 6.89988 4.47127 7.62C4.19576 8.31535 4.00764 9.11064 3.9536 10.2751C3.89868 11.4415 3.88611 11.8143 3.88611 14.785C3.88611 17.7556 3.89868 18.1284 3.9536 19.2948C4.00764 20.4594 4.19577 21.2546 4.47127 21.9499C4.75579 22.6692 5.13659 23.2801 5.7568 23.8876C6.377 24.4952 6.99738 24.8693 7.73109 25.1494C8.44045 25.4198 9.24986 25.6044 10.4363 25.6574C11.6253 25.7105 12.0046 25.7237 15.0312 25.7237C18.0579 25.7237 18.4378 25.7113 19.6261 25.6574C20.8127 25.6044 21.6229 25.4198 22.3314 25.1494C23.0642 24.8693 23.6854 24.4955 24.3057 23.8876C24.926 23.2798 25.3059 22.6692 25.5912 21.9499C25.8667 21.2546 26.0557 20.4593 26.1089 19.2948C26.1629 18.1276 26.1755 17.7556 26.1755 14.785C26.1755 11.8143 26.1629 11.4415 26.1089 10.2751C26.0548 9.11055 25.8667 8.31491 25.5912 7.62C25.3059 6.90075 24.925 6.29107 24.3057 5.68226C23.6864 5.07346 23.0642 4.69979 22.3323 4.42055C21.6229 4.15014 20.8126 3.96462 19.627 3.91247C18.4385 3.85917 18.0588 3.84622 15.0326 3.84622C12.0064 3.84622 11.6257 3.85856 10.4368 3.91247" fill="white"/>
</g>
<defs>
<radialGradient id="paint0_radial_1_203" cx="0" cy="0" r="1" gradientUnits="userSpaceOnUse" gradientTransform="translate(1.94157 28.7994) scale(38.0889 37.3835)">
<stop offset="0.09" stop-color="#FA8F21"/>
<stop offset="0.78" stop-color="#D82D7E"/>
</radialGradient>
<radialGradient id="paint1_radial_1_203" cx="0" cy="0" r="1" gradientUnits="userSpaceOnUse" gradientTransform="translate(20.78 27.8539) scale(33.5186 32.8978)">
<stop offset="0.64" stop-color="#8C3AAA" stop-opacity="0"/>
<stop offset="1" stop-color="#8C3AAA"/>
</radialGradient>
<clipPath id="clip0_1_203">
<rect width="30" height="29.4444" fill="white"/>
</clipPath>
</defs>
</svg>
