<svg width="31" height="23" viewBox="0 0 31 23" fill="none" xmlns="http://www.w3.org/2000/svg">
<path d="M27.7917 0H2.875C1.28716 0 0 1.28716 0 2.875V20.125C0 21.7128 1.28716 23 2.875 23H27.7917C29.3795 23 30.6667 21.7128 30.6667 20.125V2.875C30.6667 1.28716 29.3795 0 27.7917 0ZM27.7917 2.875V5.31905C26.4487 6.41269 24.3076 8.11325 19.7305 11.6974C18.7218 12.4908 16.7236 14.397 15.3333 14.3748C13.9433 14.3972 11.9445 12.4905 10.9362 11.6974C6.35974 8.11379 4.21816 6.41287 2.875 5.31905V2.875H27.7917ZM2.875 20.125V9.00821C4.24745 10.1014 6.19377 11.6354 9.16035 13.9584C10.4695 14.9889 12.7621 17.2638 15.3333 17.2499C17.8919 17.2638 20.1555 15.0219 21.5058 13.9588C24.4723 11.6359 26.4192 10.1015 27.7917 9.00827V20.125H2.875Z" fill="#FDFDFD"/>
</svg>
