<svg width="17" height="24" viewBox="0 0 17 24" fill="none" xmlns="http://www.w3.org/2000/svg">
<path d="M8.08158 0C4.42525 0 2.05703 1.49805 0.197742 4.1697C-0.139541 4.65434 -0.0355572 5.31883 0.434934 5.67558L2.41099 7.17391C2.88615 7.53419 3.56223 7.44995 3.93424 6.9839C5.08167 5.5464 5.93283 4.71875 7.72515 4.71875C9.13438 4.71875 10.8775 5.6257 10.8775 6.99224C10.8775 8.02529 10.0247 8.55584 8.6332 9.33595C7.01055 10.2457 4.86326 11.3779 4.86326 14.2101V14.6585C4.86326 15.2657 5.35547 15.7579 5.96265 15.7579H9.28238C9.88957 15.7579 10.3818 15.2657 10.3818 14.6585V14.394C10.3818 12.4307 16.12 12.349 16.12 7.03607C16.1201 3.03504 11.9698 0 8.08158 0ZM7.62254 17.1073C5.87287 17.1073 4.44939 18.5308 4.44939 20.2805C4.44939 22.0301 5.87287 23.4536 7.62254 23.4536C9.37221 23.4536 10.7957 22.0301 10.7957 20.2804C10.7957 18.5308 9.37221 17.1073 7.62254 17.1073Z" fill="#FDFDFD"/>
</svg>
