<svg width="28" height="28" viewBox="0 0 28 28" fill="none" xmlns="http://www.w3.org/2000/svg">
<path d="M27.3888 7.26076C27.2277 6.6669 26.9141 6.12552 26.479 5.69042C26.0439 5.25533 25.5025 4.94166 24.9086 4.78058C22.7342 4.18689 13.9825 4.18689 13.9825 4.18689C13.9825 4.18689 5.23031 4.20439 3.0555 4.79808C2.46164 4.95916 1.92026 5.27283 1.48516 5.70792C1.05006 6.14302 0.73639 6.6844 0.575313 7.27826C0 9.45308 0 14 0 14C0 14 0 18.547 0.59325 20.7393C0.754328 21.3331 1.068 21.8745 1.5031 22.3096C1.9382 22.7447 2.47957 23.0584 3.07344 23.2195C5.24781 23.8131 14 23.8131 14 23.8131C14 23.8131 22.7522 23.8131 24.927 23.2199C25.5209 23.0588 26.0622 22.7451 26.4973 22.31C26.9324 21.8749 27.2461 21.3336 27.4072 20.7397C28 18.5649 28 14 28 14C28 14 27.9825 9.45308 27.3888 7.26076Z" fill="#FF0000"/>
<path d="M11.1965 18.2052L18.4568 14L11.1961 9.79474L11.1965 18.2052Z" fill="white"/>
</svg>
